<svg xmlns="http://www.w3.org/2000/svg" data-name="Layer 1" viewBox="0 0 512 640" x="0px" y="0px"><title>p1</title><path d="M434.2,105.36H367.56a9.44,9.44,0,0,0-2.64-4.27l-43.4-40.6c-4-3.76-11.8-6.82-17.3-6.81L208,53.87c-5.5,0-13.29,3.09-17.3,6.85l-43.61,40.81a9.47,9.47,0,0,0-2.49,3.83H77.8A77.8,77.8,0,0,0,0,183.16V380.53a77.8,77.8,0,0,0,77.8,77.8H434.2a77.8,77.8,0,0,0,77.8-77.8V183.16A77.8,77.8,0,0,0,434.2,105.36ZM90.08,188.47A12.92,12.92,0,1,1,103,175.55,12.92,12.92,0,0,1,90.08,188.47ZM256,404.21A102.19,102.19,0,1,1,358.19,302,102.3,102.3,0,0,1,256,404.21Z"/><path d="M256,214.84A87.19,87.19,0,1,0,343.19,302,87.29,87.29,0,0,0,256,214.84Zm0,110.9A23.71,23.71,0,1,1,279.71,302,23.71,23.71,0,0,1,256,325.74Z"/><text x="0" y="527" fill="#000000" font-size="5px" font-weight="bold" font-family="'Helvetica Neue', Helvetica, Arial-Unicode, Arial, Sans-serif">Created by i cons</text><text x="0" y="532" fill="#000000" font-size="5px" font-weight="bold" font-family="'Helvetica Neue', Helvetica, Arial-Unicode, Arial, Sans-serif">from the Noun Project</text></svg>