<svg xmlns="http://www.w3.org/2000/svg" data-name="Layer 1" viewBox="0 0 100 125" x="0px" y="0px"><title>all</title><g><g><g data-name="Zoom In"><g data-name="Notepad - Grey"><path d="M38.05,15.78V12.54H47.2v3.24a3.14,3.14,0,0,0,3.13,3.13h0.78a3.14,3.14,0,0,0,3.13-3.12V12.54h9.15v3.24a3.14,3.14,0,0,0,3.13,3.13H67.3a3.14,3.14,0,0,0,3.13-3.12V12.54H72.3l6,5.84v9.34h6.26v-12L74.85,6.29H70.43V3.13A3.14,3.14,0,0,0,67.3,0H66.52a3.14,3.14,0,0,0-3.13,3.13V6.29H54.24V3.13A3.14,3.14,0,0,0,51.11,0H50.33A3.14,3.14,0,0,0,47.2,3.13V6.29H38.05V3.13A3.14,3.14,0,0,0,34.92,0H34.14A3.14,3.14,0,0,0,31,3.13V6.29H21.86V3.13A3.14,3.14,0,0,0,18.73,0H17.95a3.14,3.14,0,0,0-3.13,3.13V6.29H0V100H27.65l0.52-2.08,1-4.17h-23V12.54h8.56v3.24a3.14,3.14,0,0,0,3.13,3.13h0.78a3.14,3.14,0,0,0,3.13-3.12V12.54H31v3.24a3.14,3.14,0,0,0,3.13,3.13h0.78A3.14,3.14,0,0,0,38.05,15.78Z"/><path d="M98.14,47.51l-10-10a6.22,6.22,0,0,0-8.76-.1h0L42.82,73.88l-0.74.73L35.76,99.82,61,93.5l2.36-2.4h0l34.9-34.85h0A6.19,6.19,0,0,0,98.14,47.51ZM44.68,77.15L58.46,90.91,45.52,94.15l-4-4.25ZM61,82.39l-7.82-7.8L79.36,48.46l7.82,7.8Z"/></g></g></g></g><text x="0" y="115" fill="#000000" font-size="5px" font-weight="bold" font-family="'Helvetica Neue', Helvetica, Arial-Unicode, Arial, Sans-serif">Created by i cons</text><text x="0" y="120" fill="#000000" font-size="5px" font-weight="bold" font-family="'Helvetica Neue', Helvetica, Arial-Unicode, Arial, Sans-serif">from the Noun Project</text></svg>