<svg xmlns="http://www.w3.org/2000/svg" xmlns:xlink="http://www.w3.org/1999/xlink" viewBox="0 0 100 125" version="1.1" xml:space="preserve" style="" x="0px" y="0px" fill-rule="evenodd" clip-rule="evenodd" stroke-linejoin="round" stroke-miterlimit="1.41421"><g transform="matrix(2.35188e-15,5.48702,8.17813,-3.50536e-15,28.3982,22.1504)"><path d="M0.562,6.725L0.565,6.737L0.569,6.749C0.574,6.76 0.574,6.76 0.581,6.771L0.582,6.772C0.59,6.783 0.59,6.783 0.6,6.793L0.602,6.794C0.609,6.8 0.616,6.806 0.625,6.811C0.633,6.815 0.64,6.819 0.648,6.823C0.66,6.829 0.68,6.835 0.695,6.838C0.709,6.841 0.722,6.844 0.736,6.845C0.788,6.85 0.841,6.843 0.891,6.835C0.907,6.832 0.922,6.829 0.937,6.826C0.96,6.822 0.983,6.817 1.006,6.813C1.026,6.808 1.045,6.804 1.065,6.8C1.086,6.795 1.106,6.79 1.125,6.782C1.142,6.775 1.145,6.772 1.159,6.763C1.605,6.439 2.05,6.116 2.496,5.793C2.892,5.507 3.287,5.221 3.684,4.935C3.802,4.85 3.92,4.766 4.037,4.681C4.153,4.597 4.268,4.514 4.384,4.43C4.602,4.27 4.82,4.11 5.038,3.951C5.272,3.781 5.508,3.611 5.742,3.441C5.826,3.379 5.911,3.317 5.995,3.255C6.062,3.205 6.13,3.155 6.195,3.103C6.204,3.096 6.204,3.096 6.213,3.089C6.225,3.077 6.239,3.065 6.246,3.051C6.254,3.043 6.262,3.036 6.271,3.029C6.326,2.985 6.383,2.942 6.441,2.9L6.549,2.817L6.671,2.723L6.688,2.707C6.7,2.691 6.705,2.688 6.711,2.671C6.727,2.625 6.701,2.576 6.647,2.547C6.626,2.536 6.619,2.535 6.595,2.528L3.785,1.843L7.007,-1.373L7.021,-1.39C7.024,-1.396 7.028,-1.402 7.031,-1.409C7.036,-1.421 7.038,-1.434 7.037,-1.447C7.035,-1.487 7.002,-1.524 6.952,-1.545C6.936,-1.552 6.918,-1.557 6.899,-1.56C6.88,-1.563 6.86,-1.564 6.841,-1.563C6.831,-1.563 6.821,-1.561 6.812,-1.56C6.751,-1.55 6.69,-1.541 6.63,-1.531C6.611,-1.528 6.592,-1.524 6.573,-1.521C6.561,-1.52 6.561,-1.52 6.548,-1.518L6.547,-1.518L6.532,-1.521L6.505,-1.523C6.477,-1.522 6.477,-1.522 6.45,-1.519L6.45,-1.519C6.426,-1.513 6.426,-1.513 6.404,-1.506C6.399,-1.504 6.394,-1.501 6.389,-1.499C6.37,-1.49 6.354,-1.479 6.338,-1.469C6.304,-1.446 6.271,-1.423 6.237,-1.401C6.114,-1.315 5.99,-1.229 5.867,-1.143C5.616,-0.97 5.366,-0.796 5.116,-0.622C4.798,-0.401 4.482,-0.18 4.164,0.041C4.038,0.128 3.913,0.215 3.787,0.302L3.66,0.39L2.388,1.279L0.953,2.283L0.935,2.297C0.922,2.311 0.918,2.314 0.91,2.33C0.89,2.372 0.906,2.419 0.951,2.451C0.963,2.46 0.978,2.467 0.994,2.473C1.002,2.477 1.011,2.479 1.019,2.481L3.959,3.235C3.419,3.781 2.879,4.327 2.338,4.872C2.177,5.036 2.016,5.199 1.854,5.363C1.541,5.679 1.228,5.996 0.915,6.313C0.835,6.394 0.755,6.475 0.675,6.557C0.653,6.58 0.632,6.603 0.61,6.626C0.6,6.637 0.6,6.637 0.59,6.648C0.584,6.655 0.577,6.664 0.573,6.672C0.569,6.682 0.569,6.681 0.565,6.691L0.565,6.692L0.562,6.708C0.562,6.714 0.562,6.719 0.562,6.725ZM6.32,-1.374C6.318,-1.38 6.318,-1.38 6.317,-1.386C6.318,-1.382 6.319,-1.378 6.32,-1.374ZM6.257,3.02C6.256,3.027 6.256,3.027 6.253,3.035C6.254,3.03 6.256,3.025 6.257,3.02ZM2.651,1.448L3.922,0.56C4.132,0.415 4.341,0.27 4.55,0.125C4.827,-0.068 5.102,-0.26 5.378,-0.453C5.628,-0.626 5.878,-0.8 6.129,-0.973L6.254,-1.06L3.353,1.836C3.348,1.841 3.343,1.847 3.339,1.852C3.331,1.863 3.326,1.875 3.323,1.887C3.314,1.931 3.342,1.975 3.393,2.002C3.413,2.012 3.419,2.012 3.442,2.019L6.221,2.697C6.169,2.736 6.116,2.775 6.065,2.815C6.045,2.83 6.026,2.845 6.007,2.86C5.973,2.887 5.938,2.915 5.914,2.947C5.895,2.962 5.875,2.978 5.855,2.993C5.624,3.167 5.388,3.338 5.152,3.509C5.024,3.601 4.897,3.693 4.77,3.785C4.513,3.972 4.258,4.16 4.001,4.347C3.807,4.488 3.613,4.628 3.418,4.768C3.125,4.979 2.832,5.19 2.54,5.402C2.22,5.634 1.899,5.866 1.579,6.098L1.528,6.135C1.791,5.869 2.055,5.603 2.318,5.337L2.479,5.173L2.642,5.007C2.916,4.731 3.189,4.455 3.462,4.179C3.771,3.867 4.08,3.555 4.388,3.243L4.403,3.226C4.411,3.209 4.415,3.205 4.418,3.188C4.424,3.148 4.399,3.107 4.352,3.082C4.332,3.07 4.325,3.069 4.301,3.062L1.406,2.319C1.821,2.029 2.236,1.739 2.651,1.448ZM5.905,2.962L5.906,2.96C5.906,2.961 5.905,2.963 5.905,2.962ZM5.897,2.983L5.9,2.975L5.895,2.991C5.896,2.988 5.896,2.985 5.897,2.983Z" style="" fill="black" fill-rule="nonzero"/></g><g transform="matrix(1.3551,0,0,1.3551,-5.6452,-26.1621)"><path d="M41.28,22.428C42.211,22.436 43.142,22.469 44.07,22.538C46.016,22.68 47.951,22.963 49.856,23.388C50.651,23.566 51.441,23.768 52.224,23.996C57.402,25.501 62.296,28.112 66.257,31.792C67.281,32.743 68.241,33.765 69.12,34.852C70.096,36.058 70.973,37.344 71.729,38.7C72.592,40.247 73.296,41.883 73.812,43.579C74.42,45.576 74.764,47.651 74.828,49.738C74.904,52.193 74.593,54.655 73.913,57.015C73.092,59.864 71.739,62.545 69.997,64.94C67.827,67.923 65.069,70.456 61.989,72.477C58.13,75.009 53.767,76.742 49.252,77.676C46.984,78.145 44.675,78.413 42.36,78.486C40.049,78.558 37.732,78.436 35.441,78.115C34.12,77.93 32.809,77.677 31.512,77.363L31.414,77.339L14.884,89.758L14.749,89.845C14.7,89.867 14.653,89.893 14.603,89.911C14.451,89.967 14.288,89.989 14.128,89.976C13.749,89.945 13.405,89.713 13.232,89.374C13.184,89.278 13.149,89.176 13.13,89.07C13.111,88.964 13.107,88.856 13.119,88.749C13.125,88.696 13.139,88.644 13.149,88.591L17.827,70.823C17.701,70.723 17.575,70.622 17.45,70.521C17.292,70.392 17.135,70.262 16.979,70.131C16.113,69.396 15.283,68.62 14.502,67.795C12.91,66.113 11.517,64.241 10.392,62.216C9.035,59.772 8.076,57.107 7.612,54.348C7.226,52.055 7.185,49.707 7.487,47.401C7.741,45.463 8.239,43.559 8.956,41.741C9.564,40.199 10.327,38.72 11.221,37.324C12.03,36.061 12.945,34.866 13.947,33.748C14.845,32.746 15.813,31.805 16.836,30.931C21.344,27.079 26.89,24.528 32.673,23.3C34.517,22.909 36.389,22.65 38.269,22.522C39.127,22.464 39.987,22.435 40.846,22.428C40.991,22.428 41.136,22.428 41.28,22.428ZM40.858,24.642C40.044,24.649 39.231,24.676 38.419,24.731C36.708,24.848 35.003,25.079 33.323,25.426C32.567,25.582 31.817,25.762 31.072,25.966C26.184,27.303 21.541,29.676 17.756,33.067C16.831,33.896 15.96,34.785 15.154,35.731C14.262,36.778 13.451,37.895 12.74,39.073C11.932,40.413 11.255,41.831 10.734,43.306C10.124,45.033 9.732,46.836 9.577,48.66C9.394,50.825 9.545,53.014 10.021,55.134C10.596,57.688 11.638,60.126 13.037,62.337C14.225,64.213 15.667,65.925 17.286,67.443C18.069,68.177 18.895,68.863 19.752,69.509L19.875,69.617C19.91,69.659 19.948,69.698 19.98,69.742C20.109,69.919 20.183,70.133 20.191,70.351C20.197,70.497 20.182,70.533 20.156,70.675L16.101,86.075L30.509,75.25L30.648,75.161C30.698,75.139 30.747,75.112 30.799,75.094C30.955,75.037 31.124,75.017 31.289,75.034C31.344,75.04 31.397,75.054 31.452,75.064C31.647,75.115 31.842,75.164 32.038,75.212C33.213,75.497 34.401,75.729 35.598,75.902C37.813,76.22 40.055,76.343 42.291,76.273C44.543,76.202 46.79,75.936 48.994,75.468C53.168,74.581 57.202,72.969 60.775,70.626C63.586,68.782 66.111,66.481 68.109,63.771C69.715,61.593 70.971,59.154 71.74,56.556C72.372,54.423 72.671,52.195 72.62,49.971C72.577,48.132 72.295,46.3 71.786,44.532C71.339,42.981 70.718,41.482 69.952,40.063C69.276,38.811 68.487,37.621 67.607,36.504C66.808,35.491 65.934,34.537 64.999,33.648C61.202,30.035 56.447,27.5 51.423,26.069C50.62,25.84 49.81,25.639 48.994,25.466C47.383,25.124 45.75,24.89 44.109,24.761C43.3,24.697 42.49,24.661 41.679,24.646C41.405,24.643 41.132,24.641 40.858,24.642Z" style="" fill="black" fill-rule="nonzero"/></g><text x="0" y="115" fill="#000000" font-size="5px" font-weight="bold" font-family="'Helvetica Neue', Helvetica, Arial-Unicode, Arial, Sans-serif">Created by Veronika Krpciarova</text><text x="0" y="120" fill="#000000" font-size="5px" font-weight="bold" font-family="'Helvetica Neue', Helvetica, Arial-Unicode, Arial, Sans-serif">from the Noun Project</text></svg>