<svg xmlns="http://www.w3.org/2000/svg" xmlns:xlink="http://www.w3.org/1999/xlink" version="1.1" x="0px" y="0px" viewBox="0 0 100 125" enable-background="new 0 0 100 100" xml:space="preserve"><path fill-rule="evenodd" clip-rule="evenodd" fill="#000000" d="M77.8,34.2c-0.7,0-1.2,0-2.3,0c-0.1,0-0.1,0-0.2,0  c-6,0-10.9-4.9-10.9-11c0-6.1,4.9-11,10.9-11c5.8,0,10.2,4.9,10.9,10.3c0.7,5.4,6.5,4.3,8.5,3.8C90.7,31.2,84.6,34,77.8,34.2"/><path fill-rule="evenodd" clip-rule="evenodd" fill="#000000" d="M95,60.7c-0.4,1.9-2,3.3-4,3.3H65.2c-2.3-4.6-5.3-8.5-9-11.5  c3.3-8.5,10.3-14.4,18.5-14.4C85.2,38.1,93.9,48,95,60.7"/><path fill-rule="evenodd" clip-rule="evenodd" fill="#000000" d="M59.1,87.8H10.9c-2.8,0-5.2-2-5.9-4.7c1.6-18.3,14.4-32.5,30-32.5  s28.4,14.2,30,32.5C64.4,85.8,62,87.8,59.1,87.8"/><path fill-rule="evenodd" clip-rule="evenodd" fill="#000000" d="M35,44.4c-8.3,0-15.1-6.9-15.1-15.5c0-8.6,6.8-15.5,15.1-15.5  s15.1,6.9,15.1,15.5C50.1,37.4,43.3,44.4,35,44.4"/><text x="0" y="115" fill="#000000" font-size="5px" font-weight="bold" font-family="'Helvetica Neue', Helvetica, Arial-Unicode, Arial, Sans-serif">Created by Brian Dys</text><text x="0" y="120" fill="#000000" font-size="5px" font-weight="bold" font-family="'Helvetica Neue', Helvetica, Arial-Unicode, Arial, Sans-serif">from the Noun Project</text></svg>